<?xml version="1.0" encoding="UTF-8"?>
<svg id="Social_Media_Icons" data-name="Social Media Icons" xmlns="http://www.w3.org/2000/svg" viewBox="0 0 250 250">
  <defs>
    <style>
      .cls-1 {
        fill: #fff;
        fill-rule: evenodd;
      }
    </style>
  </defs>
  <path class="cls-1" d="M199.79,126.86c0,33.33-21.44,61.55-51.18,71.54-3.72.75-5.08-1.62-5.08-3.62,0-2.5.12-10.61.12-20.72,0-7.12-2.35-11.61-5.08-13.98,16.73-1.87,34.2-8.24,34.2-37.2,0-8.24-2.85-14.98-7.68-20.22.74-1.87,3.35-9.61-.74-19.98,0,0-6.32-2-20.57,7.74-5.95-1.62-12.39-2.5-18.71-2.5-6.32,0-12.61.85-18.71,2.5-14.25-9.74-20.57-7.74-20.57-7.74-4.09,10.36-1.49,18.1-.74,19.98-4.71,5.24-7.68,11.98-7.68,20.22,0,28.96,17.47,35.46,34.08,37.2-2.11,1.87-4.09,5.24-4.71,10.11-4.34,2-15.12,5.24-21.81-6.24,0,0-3.97-7.24-11.53-7.74,0,0-7.31,0-.5,4.62,0,0,4.96,2.25,8.3,10.99,0,0,4.34,13.48,25.16,8.99,0,6.24.12,12.24.12,13.98,0,2-1.36,4.37-5.08,3.62-29.74-9.99-51.18-38.2-51.18-71.54,0-41.7,33.46-75.41,74.85-75.41s74.85,33.71,74.73,75.41Z"/>
</svg>