<?xml version="1.0" encoding="UTF-8"?>
<svg id="Social_Media_Icons" data-name="Social Media Icons" xmlns="http://www.w3.org/2000/svg" viewBox="0 0 250 250">
  <defs>
    <style>
      .cls-1 {
        fill: #fff;
      }
    </style>
  </defs>
  <path class="cls-1" d="M182.47,72.77c-10.88-4.98-22.36-8.51-34.16-10.51-1.61,2.89-3.07,5.85-4.38,8.89-12.57-1.89-25.34-1.89-37.91,0-1.3-3.04-2.76-6.01-4.38-8.89-11.8,2.01-23.3,5.55-34.18,10.54-21.62,31.98-27.48,63.17-24.55,93.92h0c12.66,9.35,26.83,16.47,41.89,21.03,3.39-4.56,6.39-9.4,8.97-14.47-4.9-1.83-9.63-4.09-14.13-6.75,1.19-.86,2.34-1.75,3.46-2.6,26.53,12.47,57.23,12.47,83.76,0,1.13.92,2.29,1.81,3.46,2.6-4.51,2.66-9.25,4.92-14.16,6.76,2.58,5.06,5.58,9.9,8.97,14.46,15.08-4.55,29.26-11.66,41.92-21.02h0c3.44-35.66-5.87-66.56-24.61-93.96ZM97.5,147.8c-8.17,0-14.91-7.41-14.91-16.53s6.51-16.59,14.88-16.59,15.07,7.47,14.92,16.59-6.58,16.53-14.9,16.53ZM152.5,147.8c-8.18,0-14.9-7.41-14.9-16.53s6.51-16.59,14.9-16.59,15.03,7.47,14.88,16.59c-.14,9.12-6.56,16.53-14.88,16.53Z"/>
</svg>